<svg width="40" height="40" viewBox="0 0 40 40" fill="none" xmlns="http://www.w3.org/2000/svg">
  <rect width="40" height="40" rx="8" fill="#FF6417"/>
  <path d="M10 14C10 11.7909 11.7909 10 14 10H26C28.2091 10 30 11.7909 30 14V26C30 28.2091 28.2091 30 26 30H14C11.7909 30 10 28.2091 10 26V14Z" fill="white"/>
  <path d="M18 16C18 14.8954 18.8954 14 20 14C21.1046 14 22 14.8954 22 16V24C22 25.1046 21.1046 26 20 26C18.8954 26 18 25.1046 18 24V16Z" fill="#FF6417"/>
  <path d="M14 20C12.8954 20 12 20.8954 12 22C12 23.1046 12.8954 24 14 24H26C27.1046 24 28 23.1046 28 22C28 20.8954 27.1046 20 26 20H14Z" fill="#FF6417"/>
</svg> 