<svg width="24" height="24" viewBox="0 0 24 24" fill="none" xmlns="http://www.w3.org/2000/svg">
  <path d="M12 2C9.5 2 7.5 4 7.5 6.5C7.5 7 7.6 7.5 7.8 8C6.7 8.3 6 9.3 6 10.5C6 11.2 6.3 11.8 6.7 12.3C5.7 12.7 5 13.6 5 14.7C5 15.7 5.5 16.6 6.3 17.1C6.1 17.4 6 17.7 6 18C6 19.7 7.3 21 9 21C9.3 21 9.6 20.9 9.9 20.8C10.3 21.5 11 22 12 22C13 22 13.7 21.5 14.1 20.8C14.4 20.9 14.7 21 15 21C16.7 21 18 19.7 18 18C18 17.7 17.9 17.4 17.7 17.1C18.5 16.6 19 15.7 19 14.7C19 13.6 18.3 12.7 17.3 12.3C17.7 11.8 18 11.2 18 10.5C18 9.3 17.3 8.3 16.2 8C16.4 7.5 16.5 7 16.5 6.5C16.5 4 14.5 2 12 2Z" fill="#6B7280" opacity="0.1"/>
  <path d="M12 2C9.5 2 7.5 4 7.5 6.5C7.5 7 7.6 7.5 7.8 8C6.7 8.3 6 9.3 6 10.5C6 11.2 6.3 11.8 6.7 12.3C5.7 12.7 5 13.6 5 14.7C5 15.7 5.5 16.6 6.3 17.1C6.1 17.4 6 17.7 6 18C6 19.7 7.3 21 9 21C9.3 21 9.6 20.9 9.9 20.8C10.3 21.5 11 22 12 22C13 22 13.7 21.5 14.1 20.8C14.4 20.9 14.7 21 15 21C16.7 21 18 19.7 18 18C18 17.7 17.9 17.4 17.7 17.1C18.5 16.6 19 15.7 19 14.7C19 13.6 18.3 12.7 17.3 12.3C17.7 11.8 18 11.2 18 10.5C18 9.3 17.3 8.3 16.2 8C16.4 7.5 16.5 7 16.5 6.5C16.5 4 14.5 2 12 2Z" stroke="#6B7280" stroke-width="2" stroke-linecap="round" stroke-linejoin="round"/>
  <path d="M9 11C9 11 10 10 12 10C14 10 15 11 15 11" stroke="#6B7280" stroke-width="1.5" stroke-linecap="round"/>
  <path d="M12 10V14" stroke="#6B7280" stroke-width="1.5" stroke-linecap="round"/>
  <path d="M10 12H14" stroke="#6B7280" stroke-width="1.5" stroke-linecap="round"/>
</svg>