<svg width="24" height="24" viewBox="0 0 24 24" fill="none" xmlns="http://www.w3.org/2000/svg">
  <path d="M12 2C6.477 2 2 6.477 2 12C2 13.821 2.487 15.53 3.338 17.004L2.5 21.5L7.004 20.662C8.478 21.513 10.179 22 12 22C17.523 22 22 17.523 22 12C22 6.477 17.523 2 12 2Z" fill="#6B7280" opacity="0.1"/>
  <path d="M12 2C6.477 2 2 6.477 2 12C2 13.821 2.487 15.53 3.338 17.004L2.5 21.5L7.004 20.662C8.478 21.513 10.179 22 12 22C17.523 22 22 17.523 22 12C22 6.477 17.523 2 12 2Z" stroke="#6B7280" stroke-width="2" stroke-linecap="round" stroke-linejoin="round"/>
  <circle cx="8" cy="12" r="1" fill="#6B7280"/>
  <circle cx="12" cy="12" r="1" fill="#6B7280"/>
  <circle cx="16" cy="12" r="1" fill="#6B7280"/>
</svg>